<svg xmlns="http://www.w3.org/2000/svg" xmlns:xlink="http://www.w3.org/1999/xlink" width="100" height="100" xmlns:v="https://vecta.io/nano"><style><![CDATA[.B{stroke:#111517}.C{stroke-width:2}.D{fill-rule:nonzero}.E{fill:#0097d7}]]></style><defs><circle id="A" cx="43" cy="43" r="43"/><path id="B" d="M51.717 63.416c.12-4.669-7.562-8.477-7.562-8.477l-8.162-4.669c-1.901-1.071-2.826-5.156-1.561-7.003 5.642-6.512 4.114-10.572 4.561-24.573.504-15.775-26.667-15.651-26.268 0 .358 14.004-1.08 18.061 4.561 24.573 1.266 1.847.341 5.932-1.561 7.003l-8.162 4.669S-.119 58.747.001 63.416L0 66.784c0 .922.73 1.669 1.631 1.669h24.228 24.228c.901 0 1.631-.747 1.631-1.669l-.001-3.368z"/><path id="C" d="M28.288 40.353h-3.274a2.17 2.17 0 0 1-2.158-2.166v-.625a2.17 2.17 0 0 1 2.158-2.166h3.274a2.17 2.17 0 0 1 2.158 2.166v.625a2.17 2.17 0 0 1-2.158 2.166z"/><path id="D" d="M12.657 30.717H8.106c-1.244 0-2.263-1.048-2.263-2.329v-7.183c0-1.281 1.018-2.329 2.263-2.329h4.551v11.841z"/><path id="E" d="M39.088 30.717h4.551c1.244 0 2.263-1.048 2.263-2.329v-7.183c0-1.281-1.018-2.329-2.263-2.329h-4.551v11.841z"/><path id="F" d="M78 19c-5.523 0-10 4.046-10 9.037 0 2.828 1.44 5.351 3.69 7.008-.338 1.188-1.041 3.329-1.863 3.955 0 0 4.53-.268 5.783-2.197.767.171 1.564.271 2.39.271 5.523 0 10-4.046 10-9.037S83.523 19 78 19z"/><path id="G" d="M75.246 28.775c0-.637-.516-1.154-1.153-1.154s-1.154.517-1.154 1.154.517 1.154 1.154 1.154 1.153-.517 1.153-1.154"/></defs><g transform="translate(6 6)" fill="none" fill-rule="evenodd"><g stroke-linecap="round" class="B C"><path d="M73.657 11.496A43.84 43.84 0 0 0 44 0C19.699 0 0 19.699 0 44s19.699 44 44 44 44-19.699 44-44"/><path d="M61.6 12.138h12.138V0"/></g><g transform="translate(1 1)"><mask id="H" fill="#fff"><use xlink:href="#A"/></mask><use fill="#d8d8d8" opacity="0" xlink:href="#A"/><g mask="url(#H)"><g transform="translate(14 19)"><use xlink:href="#B" fill="#f4f4f4" class="D"/><use xlink:href="#B" class="B C"/><use xlink:href="#C" class="D E"/><g class="B C"><use xlink:href="#C"/><path d="M23.008 37.681H12.903c-2.35 0-4.256-1.912-4.256-4.271v-8.712-7.543C8.647 7.72 16.34 0 25.742 0c9.491 0 17.183 7.72 17.183 17.155v1.686"/></g><use xlink:href="#D" class="D E"/><use xlink:href="#D" class="B C"/><use xlink:href="#E" class="D E"/><use xlink:href="#E" class="B C"/></g></g></g><use xlink:href="#F" fill="#f5bf54" class="D"/><use xlink:href="#F" stroke-linejoin="round" class="B C"/><g fill="#111517" class="D"><use xlink:href="#G"/><use xlink:href="#G" x="3.846"/><use xlink:href="#G" x="7.692"/></g></g></svg>