<?xml version="1.0" encoding="UTF-8"?>
<svg width="100px" height="100px" viewBox="0 0 100 100" version="1.1" xmlns="http://www.w3.org/2000/svg" xmlns:xlink="http://www.w3.org/1999/xlink">
    <title>common-large-customization</title>
    <g id="common-large-customization" stroke="none" stroke-width="1" fill="none" fill-rule="evenodd">
        <g id="Group" fill-rule="nonzero">
            <g id="icon" transform="translate(5.000000, 5.000000)">
                <path d="M77.1859372,86.9259259 C77.1859372,87.7437037 76.5258265,88.4074074 75.7091794,88.4074074 C74.8925323,88.4074074 74.2324215,87.7437037 74.2324215,86.9259259 C74.2324215,86.1081481 74.8925323,85.4444444 75.7091794,85.4444444 C76.5258265,85.4444444 77.1859372,86.1081481 77.1859372,86.9259259" id="Fill-332" fill="#0097D7"></path>
                <path d="M83.0929686,86.9259259 C83.0929686,87.7437037 82.4328579,88.4074074 81.6162108,88.4074074 C80.7995637,88.4074074 80.1394529,87.7437037 80.1394529,86.9259259 C80.1394529,86.1081481 80.7995637,85.4444444 81.6162108,85.4444444 C82.4328579,85.4444444 83.0929686,86.1081481 83.0929686,86.9259259" id="Fill-333" fill="#F5BF54"></path>
                <path d="M89,86.9259259 C89,87.7437037 88.3398892,88.4074074 87.5232422,88.4074074 C86.7065951,88.4074074 86.0464843,87.7437037 86.0464843,86.9259259 C86.0464843,86.1081481 86.7065951,85.4444444 87.5232422,85.4444444 C88.3398892,85.4444444 89,86.1081481 89,86.9259259" id="Fill-334" fill="#595959"></path>
                <path d="M8.13672764,70.1651852 L8.13672764,70.1651852 C11.0208357,67.2718519 15.696251,67.2718519 18.5788824,70.1651852 C21.4615137,73.057037 21.4615137,77.7474074 18.5788824,80.6407407 C17.2099278,82.0155556 15.5131331,83.0155556 13.6509414,83.5503704 L1.8708441,86.9251852 L5.23637523,75.1088889 C5.76800806,73.2407407 6.76629636,71.5385185 8.13672764,70.1651852" id="Fill-437" fill="#595959"></path>
                <path d="M7.42849267,69.4592084 L7.14786073,69.7499767 C5.79507563,71.2009751 4.81384073,72.9401666 4.27456298,74.8351788 L0.909093584,86.6512583 C0.694201599,87.4057387 1.3921006,88.1025653 2.14624967,87.8865133 L13.926347,84.5116985 C15.9548805,83.9291111 17.7999976,82.8402036 19.2874978,81.3463356 C22.5587386,78.0629502 22.5587386,72.7412944 19.2872981,69.4593898 C16.0138751,66.1738139 10.7034118,66.1738139 7.42849267,69.4592084 Z M17.8704666,70.8709806 C20.3642888,73.3727797 20.3642888,77.4318646 17.8704666,79.9349453 L17.5986521,80.1981384 C16.4013554,81.3158548 14.9544201,82.1355921 13.3749035,82.5892236 L3.325,85.467 L6.19812575,75.3828158 C6.65075927,73.7922698 7.47413145,72.3328825 8.59910836,71.1260548 L8.85649821,70.8593972 C11.3382596,68.3698898 15.378627,68.3698898 17.8704666,70.8709806 Z" id="Stroke-438" fill="#111517"></path>
                <path d="M18.578587,70.1651852 C20.1247525,71.7162963 20.8143984,73.782963 20.7021648,75.8140741 C23.7974492,74.3622222 26.5397886,72.2303704 28.6929015,69.5414815 L87.5239805,1.03037037 L18.7809028,60.1844444 C16.2881356,62.3459259 14.3225709,65.0303704 12.9861051,68.0318519 C14.998926,67.9296296 17.0427589,68.622963 18.578587,70.1651852" id="Fill-439" fill="#F5BF54"></path>
                <path d="M86.8717193,0.272376144 L18.1286416,59.4264502 C15.5389445,61.6719703 13.4777526,64.4692838 12.0725732,67.6250847 C11.7691213,68.3065876 12.2917765,69.0684025 13.0368252,69.0305648 C14.8463919,68.9386649 16.5877936,69.5832641 17.8700129,70.8708216 C19.1618729,72.166814 19.8047497,73.9299697 19.703688,75.758901 C19.6619437,76.5143553 20.4418268,77.0407272 21.1268234,76.7194276 C24.3844859,75.1914119 27.2407897,72.9548073 29.4734867,70.1665308 L88.2826499,1.68184625 C89.0881786,0.743776277 87.8089545,-0.534123691 86.8717193,0.272376144 Z M78.137,10.426 L27.9342321,68.8900056 L27.6040858,69.2920676 C26.042313,71.1476886 24.1869992,72.7128286 22.1101908,73.9403457 L21.633,74.213 L21.6064405,74.0256277 C21.3331375,72.3155833 20.5433895,70.7197952 19.286822,69.4592084 L19.0630716,69.2427469 C17.8518651,68.114 16.3584754,67.3975505 14.7633326,67.134933 L14.55,67.103 L14.5923583,67.0220883 C15.8281883,64.7099356 17.4658652,62.6482953 19.4360208,60.939971 L78.137,10.426 Z" id="Stroke-440" fill="#111517"></path>
                <path d="M37.3134754,85.9259259 C37.8657602,85.9259259 38.3134754,86.3736412 38.3134754,86.9259259 C38.3134754,87.4387618 37.9274352,87.8614331 37.4300965,87.9191982 L37.3134754,87.9259259 L1.87128713,87.9259259 C1.31900238,87.9259259 0.871287129,87.4782107 0.871287129,86.9259259 C0.871287129,86.4130901 1.25732732,85.9904188 1.754666,85.9326537 L1.87128713,85.9259259 L37.3134754,85.9259259 Z" id="Stroke-441" fill="#F56577"></path>
                <path d="M57.9880852,85.9259259 C58.54037,85.9259259 58.9880852,86.3736412 58.9880852,86.9259259 C58.9880852,87.4387618 58.6020451,87.8614331 58.1047064,87.9191982 L57.9880852,87.9259259 L43.2205068,87.9259259 C42.668222,87.9259259 42.2205068,87.4782107 42.2205068,86.9259259 C42.2205068,86.4130901 42.606547,85.9904188 43.1038857,85.9326537 L43.2205068,85.9259259 L57.9880852,85.9259259 Z" id="Stroke-442" fill="#F5BF54"></path>
                <path d="M69.802148,85.9259259 C70.3544328,85.9259259 70.802148,86.3736412 70.802148,86.9259259 C70.802148,87.4387618 70.4161078,87.8614331 69.9187691,87.9191982 L69.802148,87.9259259 L63.8951166,87.9259259 C63.3428319,87.9259259 62.8951166,87.4782107 62.8951166,86.9259259 C62.8951166,86.4130901 63.2811568,85.9904188 63.7784955,85.9326537 L63.8951166,85.9259259 L69.802148,85.9259259 Z" id="Stroke-443" fill="#7DDEB1"></path>
            </g>
        </g>
    </g>
</svg>