<?xml version="1.0" encoding="UTF-8"?>
<svg width="100px" height="100px" viewBox="0 0 100 100" version="1.1" xmlns="http://www.w3.org/2000/svg" xmlns:xlink="http://www.w3.org/1999/xlink">
    <title>common-large-vector</title>
    <g id="common-large-vector" stroke="none" stroke-width="1" fill="none" fill-rule="evenodd">
        <g id="design-categories-vector-design" transform="translate(7.000000, 7.000000)">
            <polygon id="Fill-1" fill="#F3AF2B" points="0 51.8205128 8.70886076 51.8205128 8.70886076 43 0 43"></polygon>
            <polygon id="Stroke-2" stroke="#111517" stroke-width="2" points="0 51.8205128 8.70886076 51.8205128 8.70886076 43 0 43"></polygon>
            <polygon id="Fill-4" fill="#F08481" points="77.2911392 51.8205128 86 51.8205128 86 43 77.2911392 43"></polygon>
            <polygon id="Stroke-5" stroke="#111517" stroke-width="2" points="77.2911392 51.8205128 86 51.8205128 86 43 77.2911392 43"></polygon>
            <polygon id="Fill-7" fill="#7DDEB1" points="38.3298734 9.68051282 47.0387342 9.68051282 47.0387342 0.86 38.3298734 0.86"></polygon>
            <g id="Group-27">
                <polygon id="Stroke-8" stroke="#111517" stroke-width="2" points="38.1012658 8.82051282 46.8101266 8.82051282 46.8101266 0 38.1012658 0"></polygon>
                <path d="M80.7855696,43 C80.7855696,23.0580304 65.8401388,6.63400122 46.5991042,4.41025641 L46.5991042,8.6276004 L37.6808958,8.6276004 L37.6808958,4.41025641 C18.4398612,6.63400122 3.49443038,23.0580304 3.49443038,43" id="Stroke-10" stroke="#111517" stroke-width="2" stroke-linecap="round" stroke-dasharray="2,4,2,4,2,4"></path>
                <path d="M8.70886076,4.41025641 C8.70886076,6.84618803 6.75952743,8.82051282 4.35443038,8.82051282 C1.94933333,8.82051282 0,6.84618803 0,4.41025641 C0,1.97432479 1.94933333,0 4.35443038,0 C6.75952743,0 8.70886076,1.97432479 8.70886076,4.41025641" id="Fill-11" fill="#0097D7"></path>
                <path d="M8.70886076,4.41025641 C8.70886076,6.84618803 6.75952743,8.82051282 4.35443038,8.82051282 C1.94933333,8.82051282 0,6.84618803 0,4.41025641 C0,1.97432479 1.94933333,0 4.35443038,0 C6.75952743,0 8.70886076,1.97432479 8.70886076,4.41025641 L8.70886076,4.41025641 Z" id="Stroke-12" stroke="#111517" stroke-width="2" stroke-linecap="round"></path>
                <path d="M86,4.41025641 C86,6.84618803 84.0506667,8.82051282 81.6455696,8.82051282 C79.2404726,8.82051282 77.2911392,6.84618803 77.2911392,4.41025641 C77.2911392,1.97432479 79.2404726,0 81.6455696,0 C84.0506667,0 86,1.97432479 86,4.41025641" id="Fill-13" fill="#0097D7"></path>
                <path d="M86,4.41025641 C86,6.84618803 84.0506667,8.82051282 81.6455696,8.82051282 C79.2404726,8.82051282 77.2911392,6.84618803 77.2911392,4.41025641 C77.2911392,1.97432479 79.2404726,0 81.6455696,0 C84.0506667,0 86,1.97432479 86,4.41025641 L86,4.41025641 Z" id="Stroke-14" stroke="#111517" stroke-width="2" stroke-linecap="round"></path>
                <line x1="8.70886076" y1="4.41025641" x2="38.1012658" y2="4.41025641" id="Stroke-15" stroke="#111517" stroke-width="2" stroke-linecap="round"></line>
                <line x1="47.8987342" y1="4.41025641" x2="77.2911392" y2="4.41025641" id="Stroke-16" stroke="#111517" stroke-width="2" stroke-linecap="round"></line>
                <path d="M52.7654505,71.6666667 L32.1459419,71.6666667 L32.1459419,65.2168455 C32.1459419,59.5466563 27.6906552,54.9494109 22.1955562,54.9494109 L17.4177215,54.9494109 L42.4556962,15.4358974 L67.4936709,54.9494109 L62.7158362,54.9494109 C57.2207372,54.9494109 52.7654505,59.5466563 52.7654505,65.2168455 L52.7654505,71.6666667 Z" id="Fill-17" fill="#F5F5F5"></path>
                <path d="M32.1459419,71.6666667 L32.1459419,65.2168455 C32.1459419,59.5466563 27.6906552,54.9494109 22.1955562,54.9494109 L17.4177215,54.9494109 L43.5443038,13.2307692 L67.4936709,54.9494109 L62.7158362,54.9494109 C57.2207372,54.9494109 52.7654505,59.5466563 52.7654505,65.2168455 L52.7654505,71.6666667 L32.1459419,71.6666667 Z" id="Stroke-18" stroke="#111517" stroke-width="2" stroke-linecap="round"></path>
                <line x1="43.5443038" y1="15.4358974" x2="43.5443038" y2="48.5128205" id="Stroke-19" stroke="#111517" stroke-width="2" stroke-linecap="round"></line>
                <polygon id="Fill-20" fill="#595959" points="32.6582278 78.2820513 53.3417722 78.2820513 53.3417722 70.5641026 32.6582278 70.5641026"></polygon>
                <polygon id="Stroke-21" stroke="#111517" stroke-width="2" stroke-linecap="round" points="32.6582278 78.2820513 53.3417722 78.2820513 53.3417722 70.5641026 32.6582278 70.5641026"></polygon>
                <polygon id="Fill-22" fill="#595959" points="35.0640506 86 50.304557 86 50.304557 78.2820513 35.0640506 78.2820513"></polygon>
                <polygon id="Stroke-23" stroke="#111517" stroke-width="2" stroke-linecap="round" points="34.835443 86 51.164557 86 51.164557 78.2820513 34.835443 78.2820513"></polygon>
                <path d="M47.8987342,52.9230769 C47.8987342,55.3590085 45.9494008,57.3333333 43.5443038,57.3333333 C41.1392068,57.3333333 39.1898734,55.3590085 39.1898734,52.9230769 C39.1898734,50.4871453 41.1392068,48.5128205 43.5443038,48.5128205 C45.9494008,48.5128205 47.8987342,50.4871453 47.8987342,52.9230769" id="Fill-24" fill="#595959"></path>
                <path d="M47.8987342,52.9230769 C47.8987342,55.3590085 45.9494008,57.3333333 43.5443038,57.3333333 C41.1392068,57.3333333 39.1898734,55.3590085 39.1898734,52.9230769 C39.1898734,50.4871453 41.1392068,48.5128205 43.5443038,48.5128205 C45.9494008,48.5128205 47.8987342,50.4871453 47.8987342,52.9230769 L47.8987342,52.9230769 Z" id="Stroke-25" stroke="#111517" stroke-width="2" stroke-linecap="round"></path>
                <line x1="43.5443038" y1="16.5384615" x2="43.5443038" y2="13.2307692" id="Stroke-26" stroke="#111517" stroke-width="2" stroke-linecap="round"></line>
            </g>
        </g>
    </g>
</svg>