<svg width="100" height="100" viewBox="0 0 100 100" xmlns="http://www.w3.org/2000/svg" xmlns:xlink="http://www.w3.org/1999/xlink"><title>common-large-logo-files</title><defs><path id="path-1" d="M0 0h33v28H0z"/><path d="M0 18.9623906C0 18.9623906 13.8897398 17.0853243 15.1017017 2.97903109c0 0 8.939796900000001 3.9152707799999997 17.8795937-2.9499309033C33.3164711 13.4869685 8.78833663 27.651343.0 18.9623906" id="path-3"/><path d="M16.4969866 14.0279878C16.4969866 14.0279878 20.3332498 17.1252086 24.3187378 14.7940482 19.0794173 18.996097 12.3785336 21.794679 6.914807 21.6244709 7.34123617 21.4923566 12.8750813 19.6974202 16.4969866 14.0279878z" id="path-5"/><path d="M.252545824 13.0126087c0 0 9.425030346-1.2739149999999988 10.247402976-10.84570216C10.4999488 2.16690654 16.5662095 4.82375061 22.6324701.165040056 22.8602214 9.29719692 6.21586964 18.9085984.252545824 13.0126087" id="path-7"/><path d="M11.4468835 9.66432988C11.4468835 9.66432988 14.0508766 11.7665726 16.7558432 10.1831889L16.5705626 10.330521C13.0433911 13.099935 8.58925216 14.9321531 4.94570328 14.8190251 4.95345697 14.8158174 4.96257684 14.8129622 4.97356126 14.8094559L5.05460023 14.782735C5.08789255 14.771452 5.12732635 14.7577496 5.17248803 14.7414974L5.32474309 14.6849613C6.39261596 14.2768035 9.3789448 12.9011498 11.4468835 9.66432988z" id="path-9"/><path d="M.103553885 9.09748683c0 0 6.674064725-.9018972899999991 7.256625455-7.680126049999999.0.0 4.29557896 1.8815340799999998 8.59115796-1.417479920983C16.1123338 6.46655593 4.32648805 13.2727828.103553885 9.09748683" id="path-11"/><path d="M8.03047477 6.726462C8.03047477 6.726462 9.87464269 8.21512866 11.790053 7.09401195L11.6990987 7.16648229C9.1945491 9.14582625 6.01948101 10.4579148 3.42513473 10.3766811L3.43879287 10.3724315C3.72216419 10.2830182 6.32001877 9.40392408 8.03047477 6.726462z" id="path-13"/><path id="path-15" d="M0 0h40v33H0z"/><path d="M0 22.3142351c0 0 16.8360483-2.212256700000001 18.305093-18.83753082C18.305093 3.47670428 29.1412104 8.09113055 39.9773277.0 40.3836014 15.8610591 10.6525293 32.5547861.0 22.3142351" id="path-17"/><path d="M19.9963474 16.4986889C19.9963474 16.4986889 24.6466407 20.1492026 29.47769 17.4013 23.1265988 22.3538952 15.0045964 25.652143 8.38202085 25.4517002 8.90416557 25.294183 15.6080238 23.177682 19.9963474 16.4986889z" id="path-19"/><path d="M0 15.1417773C0 15.1417773 11.4242792 13.6403775 12.4210946 2.35934264 12.4210946 2.35934264 19.7741378 5.49062315 27.127181.0 27.4032431 10.7628992 7.22827129 22.0906223.0 15.1417773" id="path-21"/><path d="M13.5688941 11.1955916C13.5688941 11.1955916 16.7252495 13.6732348 20.0039969 11.807104 15.6938106 15.1683827 10.181632 17.4069034 5.68728721 17.2707261 6.04040608 17.1643463 10.5905007 15.7284567 13.5688941 11.1955916z" id="path-23"/><path d="M183168108e-23 10.7221785C183168108e-23 10.7221785 8.08977543 9.65922809 8.79590964 1.67060134 8.79590964 1.67060134 14.002672 3.88812365 19.2094344.0 19.4045817 7.62143848 5.11870808 15.643063 183168108e-23 10.7221785" id="path-25"/><path d="M9.60838896 7.92775634C9.60838896 7.92775634 11.843744 9.68225634 14.1654535 8.36094022L14.0062051 8.48388299C10.9783241 10.7955132 7.15460578 12.3247537 4.0269929 12.2298256 4.26735252 12.1576388 7.49611087 11.1426926 9.60838896 7.92775634z" id="path-27"/></defs><g id="common-large-logo-files" stroke="none" stroke-width="1" fill="none" fill-rule="evenodd"><g id="Group"><g transform="translate(32.000000, 36.000000)" id="BrandCrowd-symbol"><mask id="mask-2" fill="#fff"><use xlink:href="#path-1"/></mask><use id="Rectangle" fill="#fff" opacity="0" xlink:href="#path-1"/><g id="Group-4" mask="url(#mask-2)"><g transform="translate(0.000000, 6.444444)"><mask id="mask-4" fill="#fff"><use xlink:href="#path-3"/></mask><use id="Fill-24" stroke="none" fill="#f21b3f" fill-rule="evenodd" xlink:href="#path-3"/><mask id="mask-6" fill="#fff"><use xlink:href="#path-5"/></mask><use id="Combined-Shape" stroke="none" fill="#bf000c" fill-rule="evenodd" xlink:href="#path-5"/></g></g><g id="Group-2" mask="url(#mask-2)"><g transform="translate(5.322581, 3.222222)"><mask id="mask-8" fill="#fff"><use xlink:href="#path-7"/></mask><use id="Fill-30" stroke="none" fill="#7d7c7a" fill-rule="evenodd" xlink:href="#path-7"/><mask id="mask-10" fill="#fff"><use xlink:href="#path-9"/></mask><use id="Combined-Shape" stroke="none" fill="#5d5549" fill-rule="evenodd" xlink:href="#path-9"/></g></g><g id="Group-3" mask="url(#mask-2)"><g transform="translate(8.516129, 0.000000)"><mask id="mask-12" fill="#fff"><use xlink:href="#path-11"/></mask><use id="Fill-35" stroke="none" fill="#8da1b2" fill-rule="evenodd" xlink:href="#path-11"/><mask id="mask-14" fill="#fff"><use xlink:href="#path-13"/></mask><use id="Combined-Shape" stroke="none" fill="#66798a" fill-rule="evenodd" xlink:href="#path-13"/></g></g></g><g transform="translate(13.327789, 6.000000)"><path d="M61.5644415 15.3972502 62.4048842 75.0548512V81.0296346C62.4048842 82.954429 60.8445301 84.5147832 58.9197357 84.5147832H7.51379514C5.58900076 84.5147832 4.02864662 82.954429 4.02864662 81.0296346V16.5727212C4.02864662 15.610324 4.80882369 14.8301469 5.77122088 14.8301469 5.77730021 14.8301469 5.7833795 14.8301469 5.7894585 14.8301469L10.0488067 14.8748227C15.2034238 14.930895 17.7807323 14.9589311 17.7807323 14.9589311" id="Shape" stroke="#111517" stroke-width="2" stroke-linecap="round" transform="translate(33.216765, 49.672465) rotate(-7.000000) translate(-33.216765, -49.672465)"/><path d="M58.9437674 18.780011 59.6964027 72.8447119V78.2593594C59.6964027 80.0037043 58.2990707 81.4177752 56.5753742 81.4177752H10.5402035C8.81650709 81.4177752 7.41917502 80.0037043 7.41917502 78.2593594V20.2494584c0-1.1045695000000002.8954305000000007-2 2.000000000000001-2H14.8567628v0" id="Rectangle" fill="#dedede" fill-rule="nonzero" transform="translate(33.557789, 49.833617) rotate(-7.000000) translate(-33.557789, -49.833617)"/><path d="M59.1905523 1C59.9858802 1 60.7486606 1.31581576 61.3112162 1.87802345v0L72.7224508 13.2821992C73.2854615 13.8448616 73.6017869 14.6082047 73.6017869 15.4041758v0V69.1881188C73.6017869 70.0165459 73.2660004 70.7665459 72.7231072 71.3094392 72.180214 71.8523324 71.430214 72.1881188 70.6017869 72.1881188v0H20.2255492C19.3971221 72.1881188 18.6471221 71.8523324 18.1042289 71.3094392 17.5613357 70.7665459 17.2255492 70.0165459 17.2255492 69.1881188v0V4C17.2255492 3.17157288 17.5613357 2.42157288 18.1042289 1.87867966 18.6471221 1.33578644 19.3971221 1 20.2255492 1V1z" id="Rectangle" stroke="#111517" stroke-width="2" fill="#fff"/><g transform="translate(24.000000, 21.000000)" id="BrandCrowd-symbol"><mask id="mask-16" fill="#fff"><use xlink:href="#path-15"/></mask><use id="Rectangle" fill="#fff" opacity="0" xlink:href="#path-15"/><g id="Group-4" mask="url(#mask-16)"><g transform="translate(0.000000, 7.629535)"><mask id="mask-18" fill="#fff"><use xlink:href="#path-17"/></mask><use id="Fill-24" stroke="none" fill="#f21b3f" fill-rule="evenodd" xlink:href="#path-17"/><mask id="mask-20" fill="#fff"><use xlink:href="#path-19"/></mask><use id="Combined-Shape" stroke="none" fill="#bf000c" fill-rule="evenodd" xlink:href="#path-19"/></g></g><g id="Group-2" mask="url(#mask-16)"><g transform="translate(6.757729, 3.992131)"><mask id="mask-22" fill="#fff"><use xlink:href="#path-21"/></mask><use id="Fill-30" stroke="none" fill="#7d7c7a" fill-rule="evenodd" xlink:href="#path-21"/><mask id="mask-24" fill="#fff"><use xlink:href="#path-23"/></mask><use id="Combined-Shape" stroke="none" fill="#5d5549" fill-rule="evenodd" xlink:href="#path-23"/></g></g><g id="Group-3" mask="url(#mask-16)"><g transform="translate(10.448101, -0.000140)"><mask id="mask-26" fill="#fff"><use xlink:href="#path-25"/></mask><use id="Fill-35" stroke="none" fill="#8da1b2" fill-rule="evenodd" xlink:href="#path-25"/><mask id="mask-28" fill="#fff"><use xlink:href="#path-27"/></mask><use id="Combined-Shape" stroke="none" fill="#66798a" fill-rule="evenodd" xlink:href="#path-27"/></g></g></g><path d="M59.7899057 2.09355662V12.1980198C59.7899057 13.6416156 60.9601713 14.8118812 62.4037671 14.8118812H69.3162052" id="Shape" stroke="#111517" stroke-width="2" stroke-linecap="round"/></g></g></g></svg>